#Comment line ignore any data following # character 
#Hierarchical Translation and Rotation (.htr) file 
[Header]	
#Header keywords are followed by a single value 
FileType HTR		#Single word string
DataType HTRS		#Translation followed by rotation and scale data
FileVersion 1		#integer
NumSegments 84		#integer
NumFrames 2		#integer
DataFrameRate 30		#integer, data frame rate in this file
EulerRotationOrder ZYX
CalibrationUnits mm
RotationUnits Degrees
GlobalAxisofGravity Y
BoneLengthAxis Y
ScaleFactor 1.00
[SegmentNames&Hierarchy]
#CHILD	PARENT
MASTER GLOBAL
root MASTER
chest root
L_mid_tent01 root
R_mid_tent01 root
spine01 root
Bip01_Neck chest
L_humerus chest
R_humerus chest
weapon_bone chest
Bip01_Head Bip01_Neck
eye_left_bone Bip01_Head
eye_right_bone Bip01_Head
L_forearm L_humerus
L_front_hand L_forearm
L_weapon_bone L_forearm
L_front_hand01_01 L_front_hand
L_front_hand02_01 L_front_hand
L_front_hand03_01 L_front_hand
L_front_hand01_02 L_front_hand01_01
L_front_hand02_02 L_front_hand02_01
L_front_hand03_02 L_front_hand03_01
R_forearm R_humerus
R_front_hand R_forearm
R_weapon_bone R_forearm
R_front_hand01_01 R_front_hand
R_front_hand02_01 R_front_hand
R_front_hand03_01 R_front_hand
R_front_hand01_02 R_front_hand01_01
R_front_hand02_02 R_front_hand02_01
R_front_hand03_02 R_front_hand03_01
null_rope01_connect L_mid_tent01
Rope1_Seg01 null_rope01_connect
Rope1_Seg02 Rope1_Seg01
Rope1_Seg03 Rope1_Seg02
Rope1_Seg04 Rope1_Seg03
Rope1_Seg05 Rope1_Seg04
Rope1_Seg06 Rope1_Seg05
Rope1_Seg07 Rope1_Seg06
Rope1_Seg09 Rope1_Seg07
L_mid_hand01 Rope1_Seg09
L_mid_hand02 Rope1_Seg09
L_mid_hand03 Rope1_Seg09
null_rope02_connect R_mid_tent01
Rope2_Seg01 null_rope02_connect
Rope2_Seg02 Rope2_Seg01
Rope2_Seg03 Rope2_Seg02
Rope2_Seg04 Rope2_Seg03
Rope2_Seg05 Rope2_Seg04
Rope2_Seg06 Rope2_Seg05
Rope2_Seg07 Rope2_Seg06
Rope2_Seg09 Rope2_Seg07
R_mid_hand01 Rope2_Seg09
R_mid_hand02 Rope2_Seg09
R_mid_hand03 Rope2_Seg09
spine02 spine01
spine03 spine02
pelvis spine03
null_rope03_connect pelvis
null_rope04_connect pelvis
Rope3_Seg01 null_rope03_connect
Rope3_Seg02 Rope3_Seg01
Rope3_Seg03 Rope3_Seg02
Rope3_Seg04 Rope3_Seg03
Rope3_Seg05 Rope3_Seg04
Rope3_Seg06 Rope3_Seg05
Rope3_Seg07 Rope3_Seg06
Rope3_Seg08 Rope3_Seg07
Rope3_Seg09 Rope3_Seg08
R_rear_hand01 Rope3_Seg09
R_rear_hand02 Rope3_Seg09
R_rear_hand03 Rope3_Seg09
Rope4_Seg01 null_rope04_connect
Rope4_Seg02 Rope4_Seg01
Rope4_Seg03 Rope4_Seg02
Rope4_Seg04 Rope4_Seg03
Rope4_Seg05 Rope4_Seg04
Rope4_Seg06 Rope4_Seg05
Rope4_Seg07 Rope4_Seg06
Rope4_Seg08 Rope4_Seg07
Rope4_Seg09 Rope4_Seg08
L_rear_hand01 Rope4_Seg09
L_rear_hand02 Rope4_Seg09
L_rear_hand03 Rope4_Seg09
[BasePosition]
#SegmentName Tx, Ty, Tz, Rx, Ry, Rz, BoneLength
MASTER 0.000000 0.000000 0.000000 -90.000000 0.000000 0.000000 10.000000 
root 0.000000 0.000000 0.000000 0.000000 0.000000 0.000000 10.000000 
chest 0.000000 0.000000 0.000000 0.000000 0.000000 0.000000 10.000000 
L_mid_tent01 0.000000 0.000000 0.000000 0.000000 0.000000 0.000000 10.000000 
R_mid_tent01 0.000000 0.000000 0.000000 0.000000 0.000000 0.000000 10.000000 
spine01 0.000000 0.000000 0.000000 0.000000 0.000000 0.000000 10.000000 
Bip01_Neck 0.000000 0.000000 0.000000 0.000000 0.000000 0.000000 10.000000 
L_humerus 0.000000 0.000000 0.000000 0.000000 0.000000 0.000000 10.000000 
R_humerus 0.000000 0.000000 0.000000 0.000000 0.000000 0.000000 10.000000 
weapon_bone 0.000000 0.000000 0.000000 0.000000 0.000000 0.000000 10.000000 
Bip01_Head 0.000000 0.000000 0.000000 0.000000 0.000000 0.000000 10.000000 
eye_left_bone 0.000000 0.000000 0.000000 0.000000 0.000000 0.000000 10.000000 
eye_right_bone 0.000000 0.000000 0.000000 0.000000 0.000000 0.000000 10.000000 
L_forearm 0.000000 0.000000 0.000000 0.000000 0.000000 0.000000 10.000000 
L_front_hand 0.000000 0.000000 0.000000 0.000000 0.000000 0.000000 10.000000 
L_weapon_bone 0.000000 0.000000 0.000000 0.000000 0.000000 0.000000 10.000000 
L_front_hand01_01 0.000000 0.000000 0.000000 0.000000 0.000000 0.000000 10.000000 
L_front_hand02_01 0.000000 0.000000 0.000000 0.000000 0.000000 0.000000 10.000000 
L_front_hand03_01 0.000000 0.000000 0.000000 0.000000 0.000000 0.000000 10.000000 
L_front_hand01_02 0.000000 0.000000 0.000000 0.000000 0.000000 0.000000 10.000000 
L_front_hand02_02 0.000000 0.000000 0.000000 0.000000 0.000000 0.000000 10.000000 
L_front_hand03_02 0.000000 0.000000 0.000000 0.000000 0.000000 0.000000 10.000000 
R_forearm 0.000000 0.000000 0.000000 0.000000 0.000000 0.000000 10.000000 
R_front_hand 0.000000 0.000000 0.000000 0.000000 0.000000 0.000000 10.000000 
R_weapon_bone 0.000000 0.000000 0.000000 0.000000 0.000000 0.000000 10.000000 
R_front_hand01_01 0.000000 0.000000 0.000000 0.000000 0.000000 0.000000 10.000000 
R_front_hand02_01 0.000000 0.000000 0.000000 0.000000 0.000000 0.000000 10.000000 
R_front_hand03_01 0.000000 0.000000 0.000000 0.000000 0.000000 0.000000 10.000000 
R_front_hand01_02 0.000000 0.000000 0.000000 0.000000 0.000000 0.000000 10.000000 
R_front_hand02_02 0.000000 0.000000 0.000000 0.000000 0.000000 0.000000 10.000000 
R_front_hand03_02 0.000000 0.000000 0.000000 0.000000 0.000000 0.000000 10.000000 
null_rope01_connect 0.000000 0.000000 0.000000 0.000000 0.000000 0.000000 10.000000 
Rope1_Seg01 0.000000 0.000000 0.000000 0.000000 0.000000 0.000000 10.000000 
Rope1_Seg02 0.000000 0.000000 0.000000 0.000000 0.000000 0.000000 10.000000 
Rope1_Seg03 0.000000 0.000000 0.000000 0.000000 0.000000 0.000000 10.000000 
Rope1_Seg04 0.000000 0.000000 0.000000 0.000000 0.000000 0.000000 10.000000 
Rope1_Seg05 0.000000 0.000000 0.000000 0.000000 0.000000 0.000000 10.000000 
Rope1_Seg06 0.000000 0.000000 0.000000 0.000000 0.000000 0.000000 10.000000 
Rope1_Seg07 0.000000 0.000000 0.000000 0.000000 0.000000 0.000000 10.000000 
Rope1_Seg09 0.000000 0.000000 0.000000 0.000000 0.000000 0.000000 10.000000 
L_mid_hand01 0.000000 0.000000 0.000000 0.000000 0.000000 0.000000 10.000000 
L_mid_hand02 0.000000 0.000000 0.000000 0.000000 0.000000 0.000000 10.000000 
L_mid_hand03 0.000000 0.000000 0.000000 0.000000 0.000000 0.000000 10.000000 
null_rope02_connect 0.000000 0.000000 0.000000 0.000000 0.000000 0.000000 10.000000 
Rope2_Seg01 0.000000 0.000000 0.000000 0.000000 0.000000 0.000000 10.000000 
Rope2_Seg02 0.000000 0.000000 0.000000 0.000000 0.000000 0.000000 10.000000 
Rope2_Seg03 0.000000 0.000000 0.000000 0.000000 0.000000 0.000000 10.000000 
Rope2_Seg04 0.000000 0.000000 0.000000 0.000000 0.000000 0.000000 10.000000 
Rope2_Seg05 0.000000 0.000000 0.000000 0.000000 0.000000 0.000000 10.000000 
Rope2_Seg06 0.000000 0.000000 0.000000 0.000000 0.000000 0.000000 10.000000 
Rope2_Seg07 0.000000 0.000000 0.000000 0.000000 0.000000 0.000000 10.000000 
Rope2_Seg09 0.000000 0.000000 0.000000 0.000000 0.000000 0.000000 10.000000 
R_mid_hand01 0.000000 0.000000 0.000000 0.000000 0.000000 0.000000 10.000000 
R_mid_hand02 0.000000 0.000000 0.000000 0.000000 0.000000 0.000000 10.000000 
R_mid_hand03 0.000000 0.000000 0.000000 0.000000 0.000000 0.000000 10.000000 
spine02 0.000000 0.000000 0.000000 0.000000 0.000000 0.000000 10.000000 
spine03 0.000000 0.000000 0.000000 0.000000 0.000000 0.000000 10.000000 
pelvis 0.000000 0.000000 0.000000 0.000000 0.000000 0.000000 10.000000 
null_rope03_connect 0.000000 0.000000 0.000000 0.000000 0.000000 0.000000 10.000000 
null_rope04_connect 0.000000 0.000000 0.000000 0.000000 0.000000 0.000000 10.000000 
Rope3_Seg01 0.000000 0.000000 0.000000 0.000000 0.000000 0.000000 10.000000 
Rope3_Seg02 0.000000 0.000000 0.000000 0.000000 0.000000 0.000000 10.000000 
Rope3_Seg03 0.000000 0.000000 0.000000 0.000000 0.000000 0.000000 10.000000 
Rope3_Seg04 0.000000 0.000000 0.000000 0.000000 0.000000 0.000000 10.000000 
Rope3_Seg05 0.000000 0.000000 0.000000 0.000000 0.000000 0.000000 10.000000 
Rope3_Seg06 0.000000 0.000000 0.000000 0.000000 0.000000 0.000000 10.000000 
Rope3_Seg07 0.000000 0.000000 0.000000 0.000000 0.000000 0.000000 10.000000 
Rope3_Seg08 0.000000 0.000000 0.000000 0.000000 0.000000 0.000000 10.000000 
Rope3_Seg09 0.000000 0.000000 0.000000 0.000000 0.000000 0.000000 10.000000 
R_rear_hand01 0.000000 0.000000 0.000000 0.000000 0.000000 0.000000 10.000000 
R_rear_hand02 0.000000 0.000000 0.000000 0.000000 0.000000 0.000000 10.000000 
R_rear_hand03 0.000000 0.000000 0.000000 0.000000 0.000000 0.000000 10.000000 
Rope4_Seg01 0.000000 0.000000 0.000000 0.000000 0.000000 0.000000 10.000000 
Rope4_Seg02 0.000000 0.000000 0.000000 0.000000 0.000000 0.000000 10.000000 
Rope4_Seg03 0.000000 0.000000 0.000000 0.000000 0.000000 0.000000 10.000000 
Rope4_Seg04 0.000000 0.000000 0.000000 0.000000 0.000000 0.000000 10.000000 
Rope4_Seg05 0.000000 0.000000 0.000000 0.000000 0.000000 0.000000 10.000000 
Rope4_Seg06 0.000000 0.000000 0.000000 0.000000 0.000000 0.000000 10.000000 
Rope4_Seg07 0.000000 0.000000 0.000000 0.000000 0.000000 0.000000 10.000000 
Rope4_Seg08 0.000000 0.000000 0.000000 0.000000 0.000000 0.000000 10.000000 
Rope4_Seg09 0.000000 0.000000 0.000000 0.000000 0.000000 0.000000 10.000000 
L_rear_hand01 0.000000 0.000000 0.000000 0.000000 0.000000 0.000000 10.000000 
L_rear_hand02 0.000000 0.000000 0.000000 0.000000 0.000000 0.000000 10.000000 
L_rear_hand03 0.000000 0.000000 0.000000 0.000000 0.000000 0.000000 10.000000 
#Beginning of Data. Separated by tabs
#Fr	Tx	Ty	Tz	Rx	Ry	Rz	SF
[MASTER]
43 0.000003 -0.000086 4796.355469 0.001660 0.001660 0.001660 4796.355469
44 0.000003 -0.000091 4796.191895 0.001660 0.001660 0.001660 4796.191406
[root]
43 -16.502296 -32.874149 1478.482544 -65.970093 -12.317247 -81.609314 1478.939941
44 -16.502296 -33.039089 1478.661743 -65.913124 -12.331849 -81.290283 1479.122925
[chest]
43 -84.512650 -34.090519 0.000000 -153.108200 1.866848 138.579483 91.129311
44 -84.512650 -34.090519 0.000000 -153.108200 1.866848 138.579483 91.129311
[L_mid_tent01]
43 27.299044 22.178963 -249.918671 -167.022537 41.908440 -71.675583 252.381638
44 27.299044 22.178959 -249.918671 -167.022537 41.908440 -71.675583 252.381638
[R_mid_tent01]
43 23.228794 24.509907 226.238495 -138.786179 -81.690498 26.823832 228.744751
44 23.228794 24.509907 226.238495 -138.786179 -81.690498 26.823832 228.744751
[spine01]
43 -0.361383 -0.195265 0.000000 0.002062 0.001122 32.879829 0.410763
44 -0.361383 -0.195265 0.000000 0.002062 0.001122 32.879829 0.410763
[Bip01_Neck]
43 165.484543 71.581718 0.000119 176.643677 -1.657967 43.431911 180.302734
44 165.484543 71.581718 0.000119 176.643677 -1.657967 43.431911 180.302734
[L_humerus]
43 -13.983130 -135.272980 -120.471481 156.317398 70.210068 -112.010254 181.680161
44 -13.983130 -135.272980 -120.471481 156.317398 70.210068 -112.010254 181.680161
[R_humerus]
43 -13.983309 -135.273102 125.287651 -172.382263 -66.903831 -92.553993 184.909012
44 -13.983309 -135.273102 125.287651 -172.382263 -66.903831 -92.553993 184.909012
[weapon_bone]
43 235.964890 -300.705902 0.000000 0.000000 -89.951546 -128.212341 382.234833
44 235.964890 -300.705902 0.000000 0.000000 -89.951546 -128.212341 382.234833
[Bip01_Head]
43 213.327011 186.042175 7.559340 22.766180 5.099488 -43.855518 283.155884
44 213.327011 186.042160 7.559349 22.492239 5.073992 -43.855701 283.155884
[eye_left_bone]
43 -24.626970 125.451866 -64.772606 0.000000 -90.000000 -99.840431 143.318359
44 -24.626970 125.451866 -64.772606 0.000000 -90.000000 -99.840431 143.318359
[eye_right_bone]
43 -24.626970 125.451866 64.327362 0.000000 -89.965736 80.156380 143.117676
44 -24.626970 125.451866 64.327362 0.000000 -89.965736 80.156380 143.117676
[L_forearm]
43 322.776093 0.000000 -0.000119 0.000119 -0.002344 -95.807457 322.776093
44 322.776093 0.000000 -0.000119 0.000119 -0.002344 -95.807457 322.776093
[L_front_hand]
43 241.149185 -0.042021 -3.300071 -178.667953 -1.835447 -27.422350 241.171753
44 241.149185 -0.042021 -3.300071 -178.667953 -1.835447 -27.422350 241.171753
[L_weapon_bone]
43 156.183838 0.000000 0.000000 0.000014 0.000007 0.000001 156.183838
44 156.183838 0.000000 0.000000 0.000014 0.000007 0.000001 156.183838
[L_front_hand01_01]
43 86.095154 20.947098 -0.655860 -0.366594 -0.477154 75.385574 88.609184
44 86.095154 20.947098 -0.655860 -0.366594 -0.477154 75.385574 88.609184
[L_front_hand02_01]
43 86.935165 -11.437475 24.513514 154.399796 -59.883835 -61.369587 91.046425
44 86.935165 -11.437475 24.513514 154.399796 -59.883835 -61.369587 91.046425
[L_front_hand03_01]
43 86.637497 -14.123976 -20.424902 -153.913849 58.118122 -62.702866 90.126129
44 86.637497 -14.123976 -20.424902 -153.913849 58.118122 -62.702866 90.126129
[L_front_hand01_02]
43 71.020905 -0.000179 0.000030 0.000334 -0.002323 -106.379684 71.020905
44 71.020905 -0.000179 0.000030 0.000334 -0.002323 -106.379684 71.020905
[L_front_hand02_02]
43 71.020927 -0.000119 0.000060 0.000334 -0.002323 -106.379684 71.020927
44 71.020927 -0.000119 0.000060 0.000334 -0.002323 -106.379684 71.020927
[L_front_hand03_02]
43 71.020905 -0.000060 0.000060 0.000334 -0.002323 -106.379684 71.020905
44 71.020905 -0.000060 0.000060 0.000334 -0.002323 -106.379684 71.020905
[R_forearm]
43 322.776428 -0.000060 0.000030 0.209504 0.012586 -94.339058 322.776428
44 322.776428 -0.000060 0.000030 0.209504 0.012586 -94.339050 322.776428
[R_front_hand]
43 238.847015 -0.006795 2.210259 -2.635298 -10.645461 -26.312506 238.857239
44 238.847015 -0.006795 2.210259 -2.635298 -10.645461 -26.312506 238.857239
[R_weapon_bone]
43 155.664093 0.002503 -0.000030 0.003487 0.001180 -90.988930 155.664078
44 155.664093 0.002503 -0.000030 0.003487 0.001180 -90.988930 155.664078
[R_front_hand01_01]
43 87.624611 14.231146 22.918642 -154.633499 -59.950619 61.746044 91.683487
44 87.624611 14.231146 22.918642 -154.633499 -59.950619 61.746044 91.683487
[R_front_hand02_01]
43 89.356956 14.367283 -19.491137 154.602661 58.302849 63.744389 92.579636
44 89.356956 14.367283 -19.491137 154.602661 58.302849 63.744389 92.579636
[R_front_hand03_01]
43 87.286232 -22.307278 -0.143439 0.162155 -0.423168 -75.767921 90.091743
44 87.286232 -22.307278 -0.143439 0.162155 -0.423168 -75.767921 90.091743
[R_front_hand01_02]
43 71.020905 0.000060 0.000119 0.002323 -0.000334 106.381714 71.020905
44 71.020905 0.000060 0.000119 0.002323 -0.000334 106.381714 71.020905
[R_front_hand02_02]
43 71.020844 -0.000030 -0.000119 0.002323 -0.000334 106.381714 71.020836
44 71.020844 -0.000030 -0.000119 0.002323 -0.000334 106.381714 71.020836
[R_front_hand03_02]
43 71.020905 0.000000 0.000030 0.002323 -0.000334 106.381714 71.020905
44 71.020905 0.000000 0.000030 0.002323 -0.000334 106.381714 71.020905
[null_rope01_connect]
43 328.732483 0.000000 -0.000238 -163.957581 20.361450 -157.543213 328.732483
44 328.732483 0.000000 -0.000238 -163.835999 20.211620 -157.215042 328.732483
[Rope1_Seg01]
43 0.000002 -0.000075 0.000583 -9.191960 -1.099643 -163.778610 0.000587
44 0.000001 -0.000075 0.000596 -8.995776 -1.046224 -163.441162 0.000601
[Rope1_Seg02]
43 139.999863 -0.000179 0.000000 -15.796687 -15.484753 -14.964861 139.999863
44 139.999863 -0.000179 0.000000 -15.970456 -15.528860 -14.918576 139.999863
[Rope1_Seg03]
43 139.999924 0.000060 -0.000060 -10.224395 -6.397571 -25.918846 139.999924
44 139.999924 0.000060 -0.000060 -10.342482 -6.394844 -25.920006 139.999924
[Rope1_Seg04]
43 139.999924 -0.000060 -0.000119 -7.011432 -27.429756 -24.889488 139.999924
44 139.999924 -0.000060 -0.000119 -7.150905 -27.375479 -24.946810 139.999924
[Rope1_Seg05]
43 139.999832 0.000119 -0.000060 -3.701541 -10.649071 -10.393534 139.999832
44 139.999832 0.000119 -0.000060 -3.731118 -10.603941 -10.441864 139.999832
[Rope1_Seg06]
43 139.999954 0.000119 -0.000060 -1.424717 -3.153092 -4.482715 139.999954
44 139.999954 0.000119 -0.000060 -1.427491 -3.138480 -4.492712 139.999954
[Rope1_Seg07]
43 139.999985 0.000060 0.000000 -0.766152 -1.720684 -2.572347 139.999985
44 139.999985 0.000060 0.000000 -0.766286 -1.709201 -2.580662 139.999985
[Rope1_Seg09]
43 121.602913 0.000119 -0.000089 -89.793175 -1.359789 0.847147 121.602913
44 121.602913 0.000119 -0.000089 -89.793175 -1.359789 0.847147 121.602913
[L_mid_hand01]
43 103.859421 1.038730 8.195221 130.544373 -67.584534 -38.866943 104.187431
44 103.859421 1.038730 8.195221 130.544373 -67.584534 -38.866943 104.187431
[L_mid_hand02]
43 105.572853 -4.139662 -10.864139 -168.923172 43.409309 -73.498886 106.211075
44 105.572853 -4.139662 -10.864139 -168.923172 43.409309 -73.498886 106.211075
[L_mid_hand03]
43 104.641464 17.579376 -3.913581 -6.012627 17.808174 74.893669 106.179977
44 104.641464 17.579376 -3.913581 -6.012627 17.808174 74.893669 106.179977
[null_rope02_connect]
43 328.732849 0.000179 -0.000119 -147.557755 -20.727095 -7.129738 328.732849
44 328.732849 0.000179 -0.000119 -147.648376 -20.955643 -6.861282 328.732849
[Rope2_Seg01]
43 -0.000142 0.000089 0.000000 85.443420 27.748543 22.482119 0.000168
44 -0.000147 0.000089 0.000000 85.625969 27.694128 22.797819 0.000172
[Rope2_Seg02]
43 139.999741 -0.000060 -0.000119 2.357113 2.806057 9.402087 139.999756
44 139.999741 -0.000060 -0.000119 2.315341 2.844408 9.391919 139.999756
[Rope2_Seg03]
43 140.000107 0.000030 0.000000 5.782425 6.275953 18.803377 140.000107
44 140.000107 0.000030 0.000000 5.690228 6.331914 18.785780 140.000107
[Rope2_Seg04]
43 139.999802 0.000000 -0.000060 12.702806 15.249147 33.902893 139.999802
44 139.999802 0.000000 -0.000060 12.508953 15.291229 33.882088 139.999802
[Rope2_Seg05]
43 139.999985 -0.000060 0.000119 5.860286 12.220782 21.467617 139.999985
44 139.999985 -0.000060 0.000119 5.747801 12.174830 21.491787 139.999985
[Rope2_Seg06]
43 139.999893 -0.000030 -0.000119 2.371173 4.419064 14.157960 139.999893
44 139.999893 -0.000030 -0.000119 2.320225 4.365231 14.174475 139.999893
[Rope2_Seg07]
43 139.999893 0.000060 -0.000060 2.308088 4.208629 12.196983 139.999893
44 139.999893 0.000060 -0.000060 2.277940 4.151729 12.219353 139.999893
[Rope2_Seg09]
43 121.338966 0.000089 -0.000060 33.793236 -1.359788 -0.847141 121.338966
44 121.338966 0.000089 -0.000060 33.793236 -1.359788 -0.847141 121.338966
[R_mid_hand01]
43 104.680779 11.144459 -10.335981 -16.212063 45.237247 70.462852 105.778534
44 104.680779 11.144459 -10.335981 -16.212063 45.237247 70.462852 105.778534
[R_mid_hand02]
43 104.070427 2.443552 8.231699 49.067368 -67.749771 39.286453 104.424065
44 104.070427 2.443552 8.231699 49.067368 -67.749771 39.286453 104.424065
[R_mid_hand03]
43 106.028137 -11.221827 -5.996406 -177.101105 15.551026 -76.585571 106.788818
44 106.028137 -11.221827 -5.996406 -177.101105 15.551026 -76.585571 106.788818
[spine02]
43 129.756927 0.001550 0.000119 -1.023899 -3.926965 6.770993 129.756927
44 129.756927 0.001550 0.000119 -1.023899 -3.926965 6.770993 129.756927
[spine03]
43 78.613983 0.081736 -4.898991 1.040681 4.146420 4.212376 78.766518
44 78.613976 0.081735 -4.898990 1.040681 4.146420 4.212376 78.766510
[pelvis]
43 169.435242 0.051022 0.000000 0.019518 -0.190233 -10.721436 169.435257
44 169.435242 0.051022 0.000000 0.019518 -0.190233 -10.721436 169.435257
[null_rope03_connect]
43 -1.257226 -2.466202 137.391083 29.293852 -63.219742 38.257984 137.418976
44 -1.257226 -2.466202 137.391083 29.810959 -62.997623 37.681229 137.418976
[null_rope04_connect]
43 -1.259640 -2.480268 -137.844437 29.293852 -63.219742 38.257984 137.872513
44 -1.259640 -2.480268 -137.844437 29.810959 -62.997623 37.681229 137.872513
[Rope3_Seg01]
43 0.000000 0.000000 0.000000 14.211013 -5.862395 -57.861649 0.000000
44 0.000000 0.000000 0.000000 14.170742 -6.293599 -58.258442 0.000000
[Rope3_Seg02]
43 139.999924 -0.000119 0.000060 -2.249267 -5.787180 3.751446 139.999924
44 139.999924 -0.000119 0.000060 -2.179928 -5.764335 3.767245 139.999924
[Rope3_Seg03]
43 139.999924 -0.000119 0.000119 -3.580303 -9.159191 5.517376 139.999924
44 139.999924 -0.000119 0.000119 -3.505674 -9.161036 5.575949 139.999924
[Rope3_Seg04]
43 139.999924 0.000119 0.000000 -6.202160 -15.605490 9.103008 139.999924
44 139.999924 0.000119 0.000000 -6.172348 -15.734374 9.307682 139.999924
[Rope3_Seg05]
43 139.999924 -0.000238 0.000060 -8.335455 -23.104185 12.991834 139.999924
44 139.999924 -0.000238 0.000060 -8.452052 -23.474112 13.429244 139.999924
[Rope3_Seg06]
43 139.999893 -0.000119 -0.000060 -1.127451 -14.037466 0.833164 139.999893
44 139.999893 -0.000119 -0.000060 -1.082371 -13.907770 0.881080 139.999893
[Rope3_Seg07]
43 139.999771 0.000060 -0.000119 0.956942 -6.753275 -6.762010 139.999771
44 139.999771 0.000060 -0.000119 0.913346 -6.219606 -6.817881 139.999771
[Rope3_Seg08]
43 139.999985 -0.000060 0.000000 1.419017 -7.076104 -2.960572 139.999985
44 139.999985 -0.000060 0.000000 1.349099 -6.736086 -2.936828 139.999985
[Rope3_Seg09]
43 90.185997 -0.000179 -0.000060 89.793228 -1.359877 -0.847183 90.185997
44 90.185997 -0.000179 -0.000060 89.793228 -1.359877 -0.847183 90.185997
[R_rear_hand01]
43 103.366196 -6.073594 -10.757982 -177.714203 24.565960 -73.910950 104.101845
44 103.366196 -6.073594 -10.757982 -177.714203 24.565960 -73.910950 104.101845
[R_rear_hand02]
43 100.509819 12.039542 -7.992327 -12.874829 36.868488 72.167213 101.543350
44 100.509819 12.039542 -7.992327 -12.874829 36.868488 72.167213 101.543350
[R_rear_hand03]
43 101.539970 5.215704 5.435467 71.484581 -71.816628 21.513813 101.819031
44 101.539970 5.215704 5.435467 71.484581 -71.816628 21.513813 101.819031
[Rope4_Seg01]
43 0.000010 0.000002 -0.000007 -97.326607 -12.152024 -110.112442 0.000012
44 0.000010 0.000001 -0.000003 -97.217995 -12.049480 -110.621170 0.000010
[Rope4_Seg02]
43 139.999985 0.000060 0.000119 0.391557 3.419901 -7.860034 139.999985
44 139.999985 0.000060 0.000119 0.470408 3.449808 -7.808041 139.999985
[Rope4_Seg03]
43 139.999924 0.000000 -0.000238 0.364810 4.260152 -10.113972 139.999924
44 139.999924 0.000000 -0.000238 0.470272 4.248610 -9.975951 139.999924
[Rope4_Seg04]
43 139.999985 0.000000 0.000119 0.245163 5.796228 -12.360324 139.999985
44 139.999985 0.000000 0.000119 0.389786 5.699744 -12.063999 139.999985
[Rope4_Seg05]
43 139.999802 -0.000060 -0.000119 0.314196 7.049267 -12.356039 139.999802
44 139.999802 -0.000060 -0.000119 0.476306 7.102645 -11.977475 139.999802
[Rope4_Seg06]
43 139.999924 0.000000 0.000060 0.524892 1.605122 -9.756753 139.999924
44 139.999924 0.000000 0.000060 0.652050 1.649796 -9.620794 139.999924
[Rope4_Seg07]
43 139.999802 0.000000 0.000000 0.198892 -3.955307 -11.291491 139.999802
44 139.999802 0.000000 0.000000 0.333190 -4.066524 -11.540564 139.999802
[Rope4_Seg08]
43 139.999924 0.000000 0.000119 -2.750427 -4.195530 -11.909474 139.999924
44 139.999924 0.000000 0.000119 -2.677798 -4.949828 -12.634615 139.999924
[Rope4_Seg09]
43 90.185791 0.000060 0.000060 -135.617828 2.228885 0.850567 90.185791
44 90.185791 0.000060 0.000060 -135.617828 2.228885 0.850567 90.185791
[L_rear_hand01]
43 101.696655 -8.392275 -7.654577 -12.874829 -36.868488 107.832764 102.329041
44 101.696655 -8.392275 -7.654577 -12.874829 -36.868488 107.832764 102.329041
[L_rear_hand02]
43 102.726799 -1.568258 5.773216 71.484581 71.816628 158.486160 102.900848
44 102.726799 -1.568258 5.773216 71.484581 71.816628 158.486160 102.900848
[L_rear_hand03]
43 104.552910 9.721220 -10.420293 -177.714203 -24.565960 -106.089035 105.519653
44 104.552910 9.721220 -10.420293 -177.714203 -24.565960 -106.089035 105.519653
